<svg xmlns="http://www.w3.org/2000/svg" width="248" height="248" viewBox="0 0 248 248"><path fill="currentColor" d="M225.304 54.578c-2.065-2.825-5.535-4.444-9.521-4.444H60.175c-4.466-15.543-6.055-15.185-8.27-14.652-5.947 1.426-15.55 2.633-20.969 2.633H20.592a2.905 2.905 0 0 0-2.906 2.907c0 1.606 1.3 2.906 2.906 2.906h10.344c5.295 0 13.925-1.012 20.278-2.337.916 2.13 2.883 7.63 6.411 21.44l23.142 79.864a196.605 196.605 0 0 0 2.274 7.212c-.004.056-.017.11-.017.166 0 .723.273 1.374.709 1.882 1.587 4.65 3.354 9.466 4.786 12.956.32.777 3.56 7.595 18.966 7.595h88.958c1.606 0 2.906-1.3 2.906-2.907 0-1.606-1.3-2.906-2.906-2.906h-88.96c-11.21 0-13.576-3.989-13.59-3.989-1.096-2.674-2.397-6.158-3.656-9.725h94.579c7.71 0 15.582-5.754 17.922-13.101l23.913-75.082c1.209-3.795.719-7.593-1.347-10.418Zm-4.191 8.657-23.914 75.082c-1.564 4.908-7.235 9.052-12.385 9.052h-96.56a183.228 183.228 0 0 1-1.905-6.09L63.23 61.505a525.764 525.764 0 0 0-1.45-5.559h154.003c2.141 0 3.856.732 4.829 2.064.972 1.329 1.15 3.185.501 5.225Z"/><path fill="currentColor" d="M122.935 72.371h-46.55a2.905 2.905 0 0 0-2.907 2.906c0 1.606 1.3 2.907 2.907 2.907h46.55a2.906 2.906 0 0 0 0-5.813ZM99.66 178.453c-8.701 0-15.783 7.078-15.783 15.779 0 8.703 7.08 15.785 15.783 15.785 8.701 0 15.781-7.082 15.781-15.785 0-8.701-7.08-15.779-15.781-15.779Zm0 25.751c-5.497 0-9.97-4.473-9.97-9.972 0-5.495 4.471-9.966 9.97-9.966 5.497 0 9.968 4.471 9.968 9.966 0 5.499-4.471 9.972-9.968 9.972ZM185.16 178.453c-8.703 0-15.783 7.078-15.783 15.779 0 8.703 7.08 15.785 15.783 15.785 8.701 0 15.781-7.082 15.781-15.785 0-8.701-7.078-15.779-15.781-15.779Zm0 25.751c-5.499 0-9.971-4.473-9.971-9.972 0-5.495 4.474-9.966 9.971-9.966s9.968 4.471 9.968 9.966c0 5.499-4.471 9.972-9.968 9.972Z"/></svg>