<svg xmlns="http://www.w3.org/2000/svg" width="259.189" height="95.028"><g transform="rotate(90 129.595 129.595)" fill="#ddd"><circle cx="1.979" cy="1.979" r="1.979"/><circle cx="1.979" cy="1.979" transform="translate(12.923)" r="1.979"/><circle cx="1.979" cy="1.979" transform="translate(25.845)" r="1.979"/><circle cx="1.979" cy="1.979" transform="translate(38.768)" r="1.979"/><circle cx="1.979" cy="1.979" transform="translate(0 11.218)" r="1.979"/><circle cx="1.979" cy="1.979" transform="translate(12.923 11.218)" r="1.979"/><circle cx="1.979" cy="1.979" transform="translate(25.845 11.218)" r="1.979"/><circle cx="1.979" cy="1.979" transform="translate(38.768 11.218)" r="1.979"/><circle cx="1.979" cy="1.979" transform="translate(0 22.436)" r="1.979"/><circle cx="1.979" cy="1.979" transform="translate(12.923 22.436)" r="1.979"/><circle cx="1.979" cy="1.979" transform="translate(25.845 22.436)" r="1.979"/><circle cx="1.979" cy="1.979" transform="translate(38.768 22.436)" r="1.979"/><circle cx="1.979" cy="1.979" transform="translate(0 33.654)" r="1.979"/><circle cx="1.979" cy="1.979" transform="translate(12.923 33.654)" r="1.979"/><circle cx="1.979" cy="1.979" transform="translate(25.845 33.654)" r="1.979"/><circle cx="1.979" cy="1.979" transform="translate(38.768 33.654)" r="1.979"/><circle cx="1.979" cy="1.979" transform="translate(0 88.631)" r="1.979"/><circle cx="1.979" cy="1.979" transform="translate(12.923 88.631)" r="1.979"/><circle cx="1.979" cy="1.979" transform="translate(25.845 88.631)" r="1.979"/><circle cx="1.979" cy="1.979" transform="translate(38.768 88.631)" r="1.979"/><circle cx="1.979" cy="1.979" transform="translate(0 99.849)" r="1.979"/><circle cx="1.979" cy="1.979" transform="translate(12.923 99.849)" r="1.979"/><circle cx="1.979" cy="1.979" transform="translate(25.845 99.849)" r="1.979"/><circle cx="1.979" cy="1.979" transform="translate(38.768 99.849)" r="1.979"/><circle cx="1.979" cy="1.979" transform="translate(0 111.066)" r="1.979"/><circle cx="1.979" cy="1.979" transform="translate(12.923 111.066)" r="1.979"/><circle cx="1.979" cy="1.979" transform="translate(25.845 111.066)" r="1.979"/><circle cx="1.979" cy="1.979" transform="translate(38.768 111.066)" r="1.979"/><circle cx="1.979" cy="1.979" transform="translate(0 122.285)" r="1.979"/><circle cx="1.979" cy="1.979" transform="translate(12.923 122.285)" r="1.979"/><circle cx="1.979" cy="1.979" transform="translate(25.845 122.285)" r="1.979"/><circle cx="1.979" cy="1.979" transform="translate(38.768 122.285)" r="1.979"/><circle cx="1.979" cy="1.979" transform="translate(0 177.262)" r="1.979"/><circle cx="1.979" cy="1.979" transform="translate(12.923 177.262)" r="1.979"/><circle cx="1.979" cy="1.979" transform="translate(25.845 177.262)" r="1.979"/><circle cx="1.979" cy="1.979" transform="translate(38.768 177.262)" r="1.979"/><circle cx="1.979" cy="1.979" transform="translate(0 188.479)" r="1.979"/><circle cx="1.979" cy="1.979" transform="translate(12.923 188.479)" r="1.979"/><circle cx="1.979" cy="1.979" transform="translate(25.845 188.479)" r="1.979"/><circle cx="1.979" cy="1.979" transform="translate(38.768 188.479)" r="1.979"/><circle cx="1.979" cy="1.979" transform="translate(0 199.697)" r="1.979"/><circle cx="1.979" cy="1.979" transform="translate(12.923 199.697)" r="1.979"/><circle cx="1.979" cy="1.979" transform="translate(25.845 199.697)" r="1.979"/><circle cx="1.979" cy="1.979" transform="translate(38.768 199.697)" r="1.979"/><circle cx="1.979" cy="1.979" transform="translate(0 210.915)" r="1.979"/><circle cx="1.979" cy="1.979" transform="translate(12.923 210.915)" r="1.979"/><circle cx="1.979" cy="1.979" transform="translate(25.845 210.915)" r="1.979"/><circle cx="1.979" cy="1.979" transform="translate(38.768 210.915)" r="1.979"/><circle cx="1.979" cy="1.979" transform="translate(0 44.315)" r="1.979"/><circle cx="1.979" cy="1.979" transform="translate(12.923 44.315)" r="1.979"/><circle cx="1.979" cy="1.979" transform="translate(25.845 44.315)" r="1.979"/><circle cx="1.979" cy="1.979" transform="translate(38.768 44.315)" r="1.979"/><circle cx="1.979" cy="1.979" transform="translate(0 55.533)" r="1.979"/><circle cx="1.979" cy="1.979" transform="translate(12.923 55.533)" r="1.979"/><circle cx="1.979" cy="1.979" transform="translate(25.845 55.533)" r="1.979"/><circle cx="1.979" cy="1.979" transform="translate(38.768 55.533)" r="1.979"/><circle cx="1.979" cy="1.979" transform="translate(0 66.751)" r="1.979"/><circle cx="1.979" cy="1.979" transform="translate(12.923 66.751)" r="1.979"/><circle cx="1.979" cy="1.979" transform="translate(25.845 66.751)" r="1.979"/><circle cx="1.979" cy="1.979" transform="translate(38.768 66.751)" r="1.979"/><circle cx="1.979" cy="1.979" transform="translate(0 77.969)" r="1.979"/><circle cx="1.979" cy="1.979" transform="translate(12.923 77.969)" r="1.979"/><circle cx="1.979" cy="1.979" transform="translate(25.845 77.969)" r="1.979"/><circle cx="1.979" cy="1.979" transform="translate(38.768 77.969)" r="1.979"/><circle cx="1.979" cy="1.979" transform="translate(0 132.946)" r="1.979"/><circle cx="1.979" cy="1.979" transform="translate(12.923 132.946)" r="1.979"/><circle cx="1.979" cy="1.979" transform="translate(25.845 132.946)" r="1.979"/><circle cx="1.979" cy="1.979" transform="translate(38.768 132.946)" r="1.979"/><circle cx="1.979" cy="1.979" transform="translate(0 144.164)" r="1.979"/><circle cx="1.979" cy="1.979" transform="translate(12.923 144.164)" r="1.979"/><circle cx="1.979" cy="1.979" transform="translate(25.845 144.164)" r="1.979"/><circle cx="1.979" cy="1.979" transform="translate(38.768 144.164)" r="1.979"/><circle cx="1.979" cy="1.979" transform="translate(0 155.382)" r="1.979"/><circle cx="1.979" cy="1.979" transform="translate(12.923 155.382)" r="1.979"/><circle cx="1.979" cy="1.979" transform="translate(25.845 155.382)" r="1.979"/><circle cx="1.979" cy="1.979" transform="translate(38.768 155.382)" r="1.979"/><circle cx="1.979" cy="1.979" transform="translate(0 166.6)" r="1.979"/><circle cx="1.979" cy="1.979" transform="translate(12.923 166.6)" r="1.979"/><circle cx="1.979" cy="1.979" transform="translate(25.845 166.6)" r="1.979"/><circle cx="1.979" cy="1.979" transform="translate(38.768 166.6)" r="1.979"/><circle cx="1.979" cy="1.979" transform="translate(0 221.577)" r="1.979"/><circle cx="1.979" cy="1.979" transform="translate(12.923 221.577)" r="1.979"/><circle cx="1.979" cy="1.979" transform="translate(25.845 221.577)" r="1.979"/><circle cx="1.979" cy="1.979" transform="translate(38.768 221.577)" r="1.979"/><circle cx="1.979" cy="1.979" transform="translate(0 232.795)" r="1.979"/><circle cx="1.979" cy="1.979" transform="translate(12.923 232.795)" r="1.979"/><circle cx="1.979" cy="1.979" transform="translate(25.845 232.795)" r="1.979"/><circle cx="1.979" cy="1.979" transform="translate(38.768 232.795)" r="1.979"/><circle cx="1.979" cy="1.979" transform="translate(0 244.013)" r="1.979"/><circle cx="1.979" cy="1.979" transform="translate(12.923 244.013)" r="1.979"/><circle cx="1.979" cy="1.979" transform="translate(25.845 244.013)" r="1.979"/><circle cx="1.979" cy="1.979" transform="translate(38.768 244.013)" r="1.979"/><circle cx="1.979" cy="1.979" transform="translate(0 255.231)" r="1.979"/><circle cx="1.979" cy="1.979" transform="translate(12.923 255.231)" r="1.979"/><circle cx="1.979" cy="1.979" transform="translate(25.845 255.231)" r="1.979"/><circle cx="1.979" cy="1.979" transform="translate(38.768 255.231)" r="1.979"/><circle cx="1.979" cy="1.979" transform="translate(52.302)" r="1.979"/><circle cx="1.979" cy="1.979" transform="translate(65.225)" r="1.979"/><circle cx="1.979" cy="1.979" transform="translate(78.147)" r="1.979"/><circle cx="1.979" cy="1.979" transform="translate(91.07)" r="1.979"/><circle cx="1.979" cy="1.979" transform="translate(52.302 11.218)" r="1.979"/><circle cx="1.979" cy="1.979" transform="translate(65.225 11.218)" r="1.979"/><circle cx="1.979" cy="1.979" transform="translate(78.147 11.218)" r="1.979"/><circle cx="1.979" cy="1.979" transform="translate(91.07 11.218)" r="1.979"/><circle cx="1.979" cy="1.979" transform="translate(52.302 22.436)" r="1.979"/><circle cx="1.979" cy="1.979" transform="translate(65.225 22.436)" r="1.979"/><circle cx="1.979" cy="1.979" transform="translate(78.147 22.436)" r="1.979"/><circle cx="1.979" cy="1.979" transform="translate(91.07 22.436)" r="1.979"/><circle cx="1.979" cy="1.979" transform="translate(52.302 33.654)" r="1.979"/><circle cx="1.979" cy="1.979" transform="translate(65.225 33.654)" r="1.979"/><circle cx="1.979" cy="1.979" transform="translate(78.147 33.654)" r="1.979"/><circle cx="1.979" cy="1.979" transform="translate(91.07 33.654)" r="1.979"/><circle cx="1.979" cy="1.979" transform="translate(52.302 88.631)" r="1.979"/><circle cx="1.979" cy="1.979" transform="translate(65.225 88.631)" r="1.979"/><circle cx="1.979" cy="1.979" transform="translate(78.147 88.631)" r="1.979"/><circle cx="1.979" cy="1.979" transform="translate(91.07 88.631)" r="1.979"/><circle cx="1.979" cy="1.979" transform="translate(52.302 99.849)" r="1.979"/><circle cx="1.979" cy="1.979" transform="translate(65.225 99.849)" r="1.979"/><circle cx="1.979" cy="1.979" transform="translate(78.147 99.849)" r="1.979"/><circle cx="1.979" cy="1.979" transform="translate(91.07 99.849)" r="1.979"/><circle cx="1.979" cy="1.979" transform="translate(52.302 111.066)" r="1.979"/><circle cx="1.979" cy="1.979" transform="translate(65.225 111.066)" r="1.979"/><circle cx="1.979" cy="1.979" transform="translate(78.147 111.066)" r="1.979"/><circle cx="1.979" cy="1.979" transform="translate(91.07 111.066)" r="1.979"/><circle cx="1.979" cy="1.979" transform="translate(52.302 122.285)" r="1.979"/><circle cx="1.979" cy="1.979" transform="translate(65.225 122.285)" r="1.979"/><circle cx="1.979" cy="1.979" transform="translate(78.147 122.285)" r="1.979"/><circle cx="1.979" cy="1.979" transform="translate(91.07 122.285)" r="1.979"/><circle cx="1.979" cy="1.979" transform="translate(52.302 177.262)" r="1.979"/><circle cx="1.979" cy="1.979" transform="translate(65.225 177.262)" r="1.979"/><circle cx="1.979" cy="1.979" transform="translate(78.147 177.262)" r="1.979"/><circle cx="1.979" cy="1.979" transform="translate(91.07 177.262)" r="1.979"/><circle cx="1.979" cy="1.979" transform="translate(52.302 188.479)" r="1.979"/><circle cx="1.979" cy="1.979" transform="translate(65.225 188.479)" r="1.979"/><circle cx="1.979" cy="1.979" transform="translate(78.147 188.479)" r="1.979"/><circle cx="1.979" cy="1.979" transform="translate(91.07 188.479)" r="1.979"/><circle cx="1.979" cy="1.979" transform="translate(52.302 199.697)" r="1.979"/><circle cx="1.979" cy="1.979" transform="translate(65.225 199.697)" r="1.979"/><circle cx="1.979" cy="1.979" transform="translate(78.147 199.697)" r="1.979"/><circle cx="1.979" cy="1.979" transform="translate(91.07 199.697)" r="1.979"/><circle cx="1.979" cy="1.979" transform="translate(52.302 210.915)" r="1.979"/><circle cx="1.979" cy="1.979" transform="translate(65.225 210.915)" r="1.979"/><circle cx="1.979" cy="1.979" transform="translate(78.147 210.915)" r="1.979"/><circle cx="1.979" cy="1.979" transform="translate(91.07 210.915)" r="1.979"/><circle cx="1.979" cy="1.979" transform="translate(52.302 44.315)" r="1.979"/><circle cx="1.979" cy="1.979" transform="translate(65.225 44.315)" r="1.979"/><circle cx="1.979" cy="1.979" transform="translate(78.147 44.315)" r="1.979"/><circle cx="1.979" cy="1.979" transform="translate(91.07 44.315)" r="1.979"/><circle cx="1.979" cy="1.979" transform="translate(52.302 55.533)" r="1.979"/><circle cx="1.979" cy="1.979" transform="translate(65.225 55.533)" r="1.979"/><circle cx="1.979" cy="1.979" transform="translate(78.147 55.533)" r="1.979"/><circle cx="1.979" cy="1.979" transform="translate(91.07 55.533)" r="1.979"/><circle cx="1.979" cy="1.979" transform="translate(52.302 66.751)" r="1.979"/><circle cx="1.979" cy="1.979" transform="translate(65.225 66.751)" r="1.979"/><circle cx="1.979" cy="1.979" transform="translate(78.147 66.751)" r="1.979"/><circle cx="1.979" cy="1.979" transform="translate(91.07 66.751)" r="1.979"/><circle cx="1.979" cy="1.979" transform="translate(52.302 77.969)" r="1.979"/><circle cx="1.979" cy="1.979" transform="translate(65.225 77.969)" r="1.979"/><circle cx="1.979" cy="1.979" transform="translate(78.147 77.969)" r="1.979"/><circle cx="1.979" cy="1.979" transform="translate(91.07 77.969)" r="1.979"/><circle cx="1.979" cy="1.979" transform="translate(52.302 132.946)" r="1.979"/><circle cx="1.979" cy="1.979" transform="translate(65.225 132.946)" r="1.979"/><circle cx="1.979" cy="1.979" transform="translate(78.147 132.946)" r="1.979"/><circle cx="1.979" cy="1.979" transform="translate(91.07 132.946)" r="1.979"/><circle cx="1.979" cy="1.979" transform="translate(52.302 144.164)" r="1.979"/><circle cx="1.979" cy="1.979" transform="translate(65.225 144.164)" r="1.979"/><circle cx="1.979" cy="1.979" transform="translate(78.147 144.164)" r="1.979"/><circle cx="1.979" cy="1.979" transform="translate(91.07 144.164)" r="1.979"/><circle cx="1.979" cy="1.979" transform="translate(52.302 155.382)" r="1.979"/><circle cx="1.979" cy="1.979" transform="translate(65.225 155.382)" r="1.979"/><circle cx="1.979" cy="1.979" transform="translate(78.147 155.382)" r="1.979"/><circle cx="1.979" cy="1.979" transform="translate(91.07 155.382)" r="1.979"/><circle cx="1.979" cy="1.979" transform="translate(52.302 166.6)" r="1.979"/><circle cx="1.979" cy="1.979" transform="translate(65.225 166.6)" r="1.979"/><circle cx="1.979" cy="1.979" transform="translate(78.147 166.6)" r="1.979"/><circle cx="1.979" cy="1.979" transform="translate(91.07 166.6)" r="1.979"/><circle cx="1.979" cy="1.979" transform="translate(52.302 221.577)" r="1.979"/><circle cx="1.979" cy="1.979" transform="translate(65.225 221.577)" r="1.979"/><circle cx="1.979" cy="1.979" transform="translate(78.147 221.577)" r="1.979"/><circle cx="1.979" cy="1.979" transform="translate(91.07 221.577)" r="1.979"/><circle cx="1.979" cy="1.979" transform="translate(52.302 232.795)" r="1.979"/><circle cx="1.979" cy="1.979" transform="translate(65.225 232.795)" r="1.979"/><circle cx="1.979" cy="1.979" transform="translate(78.147 232.795)" r="1.979"/><circle cx="1.979" cy="1.979" transform="translate(91.07 232.795)" r="1.979"/><circle cx="1.979" cy="1.979" transform="translate(52.302 244.013)" r="1.979"/><circle cx="1.979" cy="1.979" transform="translate(65.225 244.013)" r="1.979"/><circle cx="1.979" cy="1.979" transform="translate(78.147 244.013)" r="1.979"/><circle cx="1.979" cy="1.979" transform="translate(91.07 244.013)" r="1.979"/><circle cx="1.979" cy="1.979" transform="translate(52.302 255.231)" r="1.979"/><circle cx="1.979" cy="1.979" transform="translate(65.225 255.231)" r="1.979"/><circle cx="1.979" cy="1.979" transform="translate(78.147 255.231)" r="1.979"/><circle cx="1.979" cy="1.979" transform="translate(91.07 255.231)" r="1.979"/></g></svg>