<svg xmlns="http://www.w3.org/2000/svg" width="170" height="170" viewBox="0 0 170 170"><circle cx="85" cy="85" r="84.5" fill="none" stroke="#ABABAB" stroke-dasharray="8 8"/><path fill="#FBD0C9" d="M84.68 131.856c-23.698-.227-40.546-19.696-42.499-43.308-2.814-34.034 27.762-45.965 42.389-27.323 12.408 15.814 43.655 4.453 43.428 28.145-.226 23.693-19.62 42.714-43.318 42.488v-.002Z"/><path fill="#C8215D" d="M82.386 133c-3.69 0-7.28-1.284-10.667-3.817-3.142-2.349-6.04-5.719-8.614-10.015-4.983-8.318-8.38-19.475-9.561-31.416a.984.984 0 0 1 .88-1.074.984.984 0 0 1 1.075.88c1.155 11.66 4.454 22.528 9.292 30.601 4.974 8.304 11.224 12.877 17.597 12.877 8.32 0 14.654-4.625 19.368-14.14 3.854-7.782 6.071-20.515 6.149-20.968.529-3.7.868-7.615 1.008-11.635a.984.984 0 0 1 1.964.069 111.607 111.607 0 0 1-1.028 11.856c0 .008-.003.017-.005.024-.092.543-2.292 13.379-6.328 21.524-5.007 10.107-12.115 15.232-21.128 15.232l-.002.002Z"/><path fill="#C8215D" d="M69.492 98.319c-1.285 0-2.416-.224-3.356-.525-2.927-.937-4.65-2.798-4.721-2.877a.982.982 0 0 1 1.45-1.325c.246.266 5.877 6.165 14.024-.115a.983.983 0 0 1 1.2 1.556c-3.25 2.506-6.195 3.285-8.596 3.285h-.001Zm25.146 0c-1.285 0-2.416-.224-3.356-.525-2.927-.937-4.65-2.798-4.721-2.877a.982.982 0 0 1 1.45-1.325c.246.266 5.877 6.165 14.024-.115a.984.984 0 0 1 1.201 1.556c-3.251 2.506-6.196 3.285-8.597 3.285h-.001Zm-32.448 5.018a.98.98 0 0 1-.702-.297 1.777 1.777 0 0 1-.073-.077.983.983 0 0 1 1.448-1.328l.032.033a.982.982 0 0 1-.705 1.669Zm5.972 2.94c-.044 0-.088-.003-.133-.009l-.177-.026a.983.983 0 0 1 .298-1.942l.142.022a.981.981 0 0 1-.13 1.955Zm3.205-.08a.983.983 0 0 1-.175-1.948l.144-.027a.982.982 0 1 1 .382 1.926l-.172.034c-.06.01-.12.016-.177.016l-.002-.001Zm-6.423-.917a.992.992 0 0 1-.437-.103l-.155-.079a.982.982 0 1 1 .897-1.746l.132.066a.982.982 0 0 1-.438 1.862h.001Zm9.623-.156a.983.983 0 0 1-.432-1.866l.134-.067a.984.984 0 0 1 .883 1.756c-.052.026-.103.052-.154.076a.976.976 0 0 1-.431.099v.002Zm2.863-1.795a.98.98 0 0 1-.599-1.76l.057-.046a.983.983 0 0 1 1.201 1.555l-.061.048a.97.97 0 0 1-.597.203h-.002Zm9.906.007a.974.974 0 0 1-.703-.296.984.984 0 0 1-.008-1.465.98.98 0 0 1 1.382.062l.03.031a.982.982 0 0 1-.703 1.668h.002Zm5.97 2.941c-.044 0-.088-.003-.133-.009l-.177-.026a.983.983 0 0 1 .298-1.942l.142.022a.982.982 0 0 1-.13 1.955Zm3.205-.08a.983.983 0 0 1-.175-1.948l.144-.027a.982.982 0 1 1 .382 1.926 10.69 10.69 0 0 1-.172.034c-.06.01-.12.016-.177.016l-.002-.001Zm-6.423-.917a.991.991 0 0 1-.436-.103l-.156-.079a.982.982 0 1 1 .898-1.746l.131.066a.982.982 0 0 1-.438 1.862h.001Zm9.623-.156a.983.983 0 0 1-.432-1.866l.134-.067a.983.983 0 1 1 .883 1.756c-.052.026-.103.052-.154.076a.976.976 0 0 1-.431.099v.002Zm2.864-1.795a.983.983 0 0 1-.599-1.76l.058-.046a.984.984 0 0 1 1.201 1.555l-.062.048a.969.969 0 0 1-.597.203h-.001Zm-5.477 20.037a.98.98 0 0 1-.92-1.319l.014-.044a.982.982 0 1 1 1.864.624 7.87 7.87 0 0 1-.035.101.984.984 0 0 1-.922.638h-.001Zm.495-3.244a.982.982 0 0 1-.982-.982v-.147a.983.983 0 0 1 .967-.997h.015c.535 0 .974.431.983.967v.175c0 .543-.44.982-.983.982v.002Zm-.533-3.324a.982.982 0 0 1-.931-.671l-.047-.138a.98.98 0 1 1 1.851-.654c.02.056.04.112.058.168a.981.981 0 0 1-.933 1.295h.002Zm-1.59-2.966a.98.98 0 0 1-.78-.384 5.957 5.957 0 0 0-.09-.115.981.981 0 1 1 1.54-1.221l.108.139a.982.982 0 0 1-.778 1.581Zm-2.418-2.35a.976.976 0 0 1-.587-.195l-.12-.089a.983.983 0 0 1 1.156-1.588l.139.101a.983.983 0 0 1-.588 1.771Zm-2.908-1.728a.989.989 0 0 1-.419-.094l-.068-.032a.982.982 0 1 1 .838-1.777l.07.034a.981.981 0 0 1-.421 1.87v-.001Zm-13.479.006a.982.982 0 0 1-.117-1.959c.071-.009.109-.012.109-.012a.986.986 0 0 1 1.061.898.979.979 0 0 1-.889 1.059l-.043.004a.977.977 0 0 1-.12.008l-.001.002Zm-8.978 8.881a.98.98 0 0 1-.966-1.168l.034-.169a.982.982 0 1 1 1.925.39l-.029.146a.984.984 0 0 1-.964.798v.003Zm1.05-3.202a.982.982 0 0 1-.88-1.418l.08-.158a.982.982 0 0 1 1.747.898l-.067.131a.983.983 0 0 1-.88.547Zm1.962-2.736a.977.977 0 0 1-.698-.292.98.98 0 0 1 .006-1.388l.126-.123a.981.981 0 1 1 1.361 1.416l-.104.103a.982.982 0 0 1-.69.284Zm2.751-1.945a.982.982 0 0 1-.432-1.864l.157-.076a.982.982 0 1 1 .837 1.777l-.133.064a.976.976 0 0 1-.43.099h.001Zm-6.053 11.168a.982.982 0 0 1-.982-.982v-.079a.982.982 0 0 1 .982-.979h.003c.542.002.98.443.98.985v.073c0 .542-.44.982-.983.982Z"/><path fill="#C8215D" d="M82.705 114.903c-1.866 0-3.205-.423-3.993-1.262-.58-.619-1.135-1.765-.482-3.709 2.001-5.957 3.718-17.957.017-20.669-8.376-6.14-16.901-.833-16.986-.78a.984.984 0 0 1-1.058-1.656c.1-.063 2.472-1.559 6.018-2.209 3.289-.603 8.248-.56 13.187 3.06 2.31 1.694 3.29 5.46 2.912 11.193-.286 4.34-1.325 8.997-2.23 11.686-.276.824-.258 1.408.054 1.741.952 1.017 4.464.66 6.653.083a.982.982 0 1 1 .501 1.898c-.063.016-1.56.409-3.305.563a14.8 14.8 0 0 1-1.29.061h.002Zm.88 7.813a13.54 13.54 0 0 1-3.227-.39c-2.862-.702-4.634-2.106-4.708-2.165a.982.982 0 0 1 1.228-1.534c.028.023 1.574 1.227 4.03 1.812 3.266.778 6.544.147 9.741-1.873a.982.982 0 1 1 1.05 1.66c-3.007 1.901-5.803 2.492-8.114 2.492v-.002Zm3.464-34.076a.985.985 0 0 1-.674-1.7c.228-.215 5.725-5.224 18.506-.2a.983.983 0 0 1-.719 1.828c-6.052-2.378-10.213-2.295-12.638-1.807-2.588.521-3.794 1.602-3.806 1.612a.97.97 0 0 1-.67.268Z"/><path fill="#C8215D" d="M54.522 88.636a.978.978 0 0 1-.966-.8c-.106-.567-2.56-14.01.003-26.602 1.446-7.104 4.995-13.156 10.265-17.501 5.207-4.294 11.71-6.621 18.809-6.728 2.734-.043 5.386.185 7.878.676 7 1.377 13.429 6.31 17.642 13.536 5.777 9.906 6.785 22.513 2.767 34.59a.98.98 0 0 1-.855.67.985.985 0 0 1-.949-.527c-.045-.088-4.684-8.858-14.724-15.162-1.313.221-6.22 1.13-12.698 3.338-6.966 2.375-17.23 6.781-26.557 14.294a.987.987 0 0 1-.617.218l.002-.002ZM83.26 38.964c-.198 0-.398 0-.597.005-13.75.207-24.419 9.1-27.179 22.657-1.98 9.726-.822 20.26-.254 24.22 9.202-7.07 19.077-11.282 25.88-13.596 7.728-2.631 13.124-3.43 13.35-3.462a.978.978 0 0 1 .656.136c7.882 4.856 12.569 11.062 14.583 14.171 3.065-10.89 1.918-22.039-3.243-30.889-3.93-6.737-9.878-11.329-16.324-12.597a35.755 35.755 0 0 0-6.874-.645h.002Z"/><path fill="#C8215D" d="M94.601 70.742a.982.982 0 0 1-.963-1.178c2.988-14.56.634-22.114-1.87-25.887-2.606-3.93-5.801-4.607-5.936-4.634a.984.984 0 0 1-.775-1.15.98.98 0 0 1 1.143-.78c.164.032 4.071.81 7.153 5.399 1.765 2.626 2.905 5.979 3.39 9.962.595 4.89.198 10.773-1.18 17.483a.981.981 0 0 1-.96.785H94.6Z"/></svg>