<svg xmlns="http://www.w3.org/2000/svg" width="170" height="170" viewBox="0 0 170 170"><circle cx="85" cy="85" r="84.5" fill="none" stroke="#ABABAB" stroke-dasharray="8 8"/><path fill="#FBD0C9" d="M85.14 132.998c-26.73-.257-45.733-22.32-47.935-49.08-3.175-38.57 31.312-52.093 47.81-30.966C99.01 70.874 134.254 58 133.998 84.848c-.255 26.85-22.13 48.407-48.859 48.15Z"/><path fill="#C8215D" d="M120.219 93.717h-73.64a1.11 1.11 0 0 1-1.109-1.113 1.11 1.11 0 0 1 1.108-1.113h73.641a1.11 1.11 0 0 1 1.108 1.113 1.11 1.11 0 0 1-1.108 1.113ZM83.18 107.109c-2.533 0-5.502-.678-9.183-2.486-14.05-6.901-26.761-.093-26.887-.024a1.106 1.106 0 0 1-1.504-.444 1.115 1.115 0 0 1 .442-1.51c.141-.077 3.515-1.908 8.77-2.832 4.847-.853 12.279-1.059 20.154 2.808 8.32 4.086 12.204 1.884 16.704-.664 3.086-1.749 6.584-3.728 11.745-3.728 10.337 0 17.275 6.572 17.567 6.851.441.425.457 1.13.032 1.574a1.104 1.104 0 0 1-1.566.032c-.065-.062-6.611-6.231-16.033-6.231-4.58 0-7.669 1.75-10.657 3.442-2.806 1.589-5.67 3.21-9.582 3.21l-.002.002Z"/><path fill="#C8215D" d="M67.747 118.186c-3.648 0-6.614-2.981-6.614-6.644 0-3.662 2.968-6.644 6.614-6.644s6.614 2.982 6.614 6.644c0 3.663-2.968 6.644-6.614 6.644Zm0-11.063c-2.426 0-4.398 1.983-4.398 4.418s1.974 4.418 4.398 4.418c2.424 0 4.398-1.983 4.398-4.418s-1.974-4.418-4.398-4.418Zm32.731 8.731c-2.233 0-4.049-1.825-4.049-4.067 0-2.241 1.817-4.067 4.049-4.067 2.231 0 4.048 1.826 4.048 4.067 0 2.242-1.817 4.067-4.048 4.067Zm0-5.909a1.838 1.838 0 0 0-1.833 1.841c0 1.015.822 1.84 1.833 1.84a1.837 1.837 0 0 0 1.832-1.84 1.838 1.838 0 0 0-1.832-1.841ZM85.46 126.354c-3.34 0-6.055-2.727-6.055-6.082s2.715-6.082 6.055-6.082 6.055 2.727 6.055 6.082-2.716 6.082-6.055 6.082Zm0-9.938c-2.117 0-3.84 1.729-3.84 3.856s1.722 3.856 3.84 3.856c2.117 0 3.839-1.729 3.839-3.856s-1.722-3.856-3.84-3.856ZM63.115 79.192c-6.157 0-10.54-.737-10.818-.785a1.114 1.114 0 0 1 .374-2.194c.102.017 10.323 1.731 21.38-.11 14.593-2.428 23.672-9.584 26.986-21.265a1.108 1.108 0 1 1 2.131.61c-1.967 6.938-5.905 12.469-11.7 16.436-4.593 3.146-10.352 5.307-17.11 6.427-4.024.666-7.897.883-11.245.883l.002-.002Z"/><path fill="#C8215D" d="M79.342 83.25c-5.029 0-10.446-1.015-14.861-4.282a1.116 1.116 0 0 1-.283-1.484c.276-.446 6.836-10.942 12.42-14.3.368-.221.83-.21 1.186.03.357.24.543.667.478 1.093-.128.837-.217 1.7-.263 2.462 3.326-5.257 10.976-17.187 24.201-20.709 4.961-1.322 8.24-.72 9.749 1.784 1.778 2.954.344 7.723-1.169 11.204-1.841 4.231-4.465 8.112-6.123 9.929-2.259 2.472-4.361 3.846-6.032 4.61 1.741.795 2.629 1.557 2.849 2.434.153.611-.034 1.233-.515 1.706-1 .984-6.892 3.587-14.121 4.844-2.254.392-4.83.681-7.516.681v-.001Zm-12.69-5.48c6.028 3.902 13.977 3.608 19.706 2.626 6.35-1.087 11.333-3.224 12.73-4.036-.727-.54-2.595-1.346-4.41-1.875a1.114 1.114 0 0 1 .355-2.181c.007-.005 3.578.017 8.011-4.836 1.537-1.685 3.985-5.317 5.725-9.315 1.819-4.178 2.293-7.516 1.305-9.16-1.168-1.942-4.606-1.498-7.284-.784-12.514 3.334-19.858 14.944-22.993 19.901-1.341 2.12-1.701 2.69-2.51 2.713a1.171 1.171 0 0 1-1-.502c-.516-.725-.576-2.27-.48-3.785-3.754 3.245-7.706 9.021-9.153 11.23l-.001.003Z"/></svg>