<svg xmlns="http://www.w3.org/2000/svg" width="170" height="170" viewBox="0 0 170 170"><circle cx="85" cy="85" r="84.5" fill="none" stroke="#ABABAB" stroke-dasharray="8 8"/><path fill="#FBD0C9" d="M85.14 132.998c-26.73-.257-45.733-22.32-47.935-49.08-3.175-38.57 31.312-52.093 47.81-30.966C99.01 70.874 134.254 58 133.998 84.848c-.255 26.85-22.13 48.407-48.859 48.15Z"/><path fill="#C8215D" d="M68.969 78.692c-.738 0-1.43-.287-1.948-.81l-1.129-1.133a2.783 2.783 0 0 1 0-3.916l3.18-3.196h-15.31c-1.96 0-3.554-1.6-3.554-3.57 0-1.97 1.593-3.57 3.554-3.57h15.31l-3.18-3.195a2.783 2.783 0 0 1 0-3.917l1.129-1.133a2.73 2.73 0 0 1 1.948-.808c.736 0 1.43.287 1.948.81l9.635 9.678a2.77 2.77 0 0 1 .8 2.137 2.761 2.761 0 0 1-.8 2.137l-9.635 9.678a2.73 2.73 0 0 1-1.948.808Zm-15.207-13.97c-.738 0-1.338.604-1.338 1.345 0 .742.6 1.344 1.338 1.344h17.986a1.114 1.114 0 0 1 .784 1.899l-5.073 5.096a.543.543 0 0 0-.157.384c0 .084.02.246.157.383l1.128 1.134a.538.538 0 0 0 .764 0l9.635-9.678a.54.54 0 0 0 .151-.444 1.114 1.114 0 0 1 0-.238.544.544 0 0 0-.151-.443l-9.635-9.679a.537.537 0 0 0-.382-.157.537.537 0 0 0-.382.157L67.46 56.96a.543.543 0 0 0-.157.384c0 .084.02.246.157.383l5.073 5.096a1.114 1.114 0 0 1-.784 1.9H53.761Zm47.236 13.972a2.74 2.74 0 0 1-1.949-.81l-9.634-9.678a2.767 2.767 0 0 1-.8-2.137 2.766 2.766 0 0 1 .798-2.137l9.636-9.678a2.753 2.753 0 0 1 3.899 0l1.128 1.133a2.783 2.783 0 0 1 0 3.916l-3.18 3.196h15.311c1.96 0 3.554 1.6 3.554 3.57 0 1.97-1.594 3.57-3.554 3.57h-15.311l3.18 3.196a2.783 2.783 0 0 1 0 3.916l-1.128 1.133a2.74 2.74 0 0 1-1.948.81h-.002Zm0-23.023a.535.535 0 0 0-.382.156l-9.635 9.679a.54.54 0 0 0-.151.443c.008.079.008.16 0 .238a.539.539 0 0 0 .151.444l9.635 9.678a.547.547 0 0 0 .764 0l1.128-1.134a.54.54 0 0 0 .157-.383.54.54 0 0 0-.157-.384l-5.073-5.096a1.114 1.114 0 0 1 .782-1.899h17.986a1.343 1.343 0 0 0 0-2.688H98.217a1.114 1.114 0 0 1-.782-1.9l5.073-5.095a.54.54 0 0 0 .157-.384.54.54 0 0 0-.157-.383l-1.128-1.134a.535.535 0 0 0-.382-.156v-.002ZM84.09 128.152c-.452 0-.904-.024-1.356-.07-3.383-.353-6.583-2.019-9.005-4.69-2.653-2.923-4.33-6.959-4.85-11.673-.912-8.279 1.387-16.002 3.48-21.021a54.448 54.448 0 0 1 3.666-7.248H39.78a1.11 1.11 0 0 1-1.108-1.114 1.11 1.11 0 0 1 1.108-1.113h38.285a1.116 1.116 0 0 1 .898 1.764c-.095.134-9.53 13.543-7.883 28.489 1.082 9.82 7.077 13.89 11.881 14.394 5.7.596 10.73-3.137 12.816-9.511 2.534-7.746.572-16.385-1.52-22.267-2.297-6.456-5.253-11.105-5.284-11.151a1.116 1.116 0 0 1 .933-1.716h40.279a1.11 1.11 0 0 1 1.108 1.113 1.11 1.11 0 0 1-1.108 1.113H91.853a65.421 65.421 0 0 1 4.473 9.843c3.184 8.925 3.721 17.141 1.556 23.761-1.23 3.762-3.38 6.781-6.215 8.729a13.396 13.396 0 0 1-7.58 2.372l.002-.004Z"/></svg>