<svg xmlns="http://www.w3.org/2000/svg" width="889" height="239" fill="none" viewBox="0 0 889 239"><path fill="#ECB5A4" d="M192.65 135.549c-6.568 3.982-6.554 13.273-6.602 20.972-.063 15.858-3.884 32.001-12.866 45.065-2.67 3.892-6.2 7.714-10.86 8.367-3.787.528-7.49-1.161-10.833-2.981a104.582 104.582 0 0 1-31.917-26.838 181.147 181.147 0 0 1 10.625 44.315c.174 1.515.319 3.078-.194 4.51-.922 2.599-3.814 4.079-6.568 4.141-2.753.049-5.389-1.049-7.871-2.23-16.333-7.825-31.251-20.799-49.352-21.431 1.56-5.4 3.148-10.855 5.569-15.921-12.165 2.134-25.606-.097-34.032-8.971-5.867-6.185-8.607-14.725-13.885-21.431-6.824-8.666-17.76-14.148-22.151-24.287 35.828-3.905 73.092 7.699 100.417 31.25l1.318-.382c3.897-22.488 7.809-45.003 13.246-67.17 3.086-12.508 6.741-25.114 13.76-35.92 2.843-4.385 6.491-8.624 11.436-10.264 3.184-1.07 7.268-.653 9.016 2.196.985 1.612.999 3.586 1.228 5.448 1.588 14.037 14.883 24.113 18.399 37.796 3.1 12.064-1.956 24.399-9.05 34.961a103.248 103.248 0 0 1 12.261-2.515c6.332-.925 13.025-1.21 18.913 1.306l-.007.014Z"/><path fill="#442E2E" d="M104.599 170.016c2.427-12.73 4.806-25.475 7.351-38.185 2.483-12.411 5.105-24.843 8.496-37.038 1.547-5.567 3.315-11.098 5.632-16.393 2.254-5.157 4.944-10.417 8.606-14.726 2.844-3.349 7.373-7.143 12.116-5.983 2.58.633 3.253 2.662 3.496 5.094.243 2.418.631 4.781 1.401 7.095 3.079 9.29 9.931 16.574 14.37 25.156 2.358 4.572 3.759 9.478 3.682 14.648-.076 5.476-1.616 10.883-3.876 15.844-4.599 10.104-11.818 19.326-19.725 27.053-3.869 3.78-8.107 7.179-12.809 9.861-2.039 1.16-4.314 2.557-6.665 2.912-.714.111-1.741.194-2.323-.341-.833-.764-.188-2.314.159-3.162 4.03-9.868 15.258-15.281 24.503-19.075a106.203 106.203 0 0 1 17.054-5.386c5.777-1.306 11.797-2.362 17.733-2.057 2.892.153 5.708.744 8.385 1.856-.138-1.042-.27-2.078-.409-3.12-6.783 4.273-7.337 12.953-7.421 20.201-.111 9.256-.922 18.318-3.585 27.226-1.346 4.503-3.093 8.867-5.306 13.016-2.046 3.829-4.397 7.783-7.615 10.743-1.491 1.369-3.253 2.481-5.25 2.905-2.316.486-4.709-.125-6.859-1.008-4.251-1.744-8.281-4.385-12.074-6.956-8.656-5.879-16.361-13.099-22.887-21.271-1.061-1.334-3.482.104-2.885 1.682a181.978 181.978 0 0 1 7.317 24.363 178.904 178.904 0 0 1 3.19 18.777c.201 1.786.652 4.002-.499 5.566-2.13 2.898-6.27 2.196-9.141 1.105-3.53-1.341-6.887-3.301-10.167-5.149-6.367-3.593-12.553-7.519-19.093-10.799-7.31-3.662-15.064-6.414-23.296-6.748l1.657 2.182c3.19-11.007 6.915-23.599 17.47-29.763 1.873-1.091 4.113-2.244 6.36-1.959.583.076 1.575.278 1.817.924.41 1.07-1.116 2.404-1.761 3.085-3.912 4.114-9.134 6.685-14.516 8.284-9.765 2.911-21.111 3.161-30.425-1.439-4.855-2.397-8.642-6.011-11.59-10.542-3.155-4.857-5.485-10.215-8.87-14.926-3.433-4.781-7.913-8.534-12.282-12.405-4.307-3.815-8.496-7.852-10.854-13.21-.506.876-1.006 1.758-1.512 2.634 13.864-1.473 27.839-.778 41.467 2.189 13.537 2.939 26.597 7.964 38.588 14.92 6.762 3.919 13.288 8.436 19.225 13.53 1.553 1.334 3.828-.925 2.261-2.266-10.84-9.319-22.936-16.775-36.14-22.244-13.143-5.441-27.118-8.77-41.287-9.909-8.01-.647-16.117-.584-24.114.278-1.394.153-2.074 1.355-1.512 2.633 4.716 10.667 15.848 15.942 22.672 24.934 3.842 5.066 6.276 11.021 9.82 16.268 3.315 4.906 7.636 8.901 13.025 11.417 10.528 4.913 23.122 4.621 33.99.959 5.812-1.96 11.603-5.08 15.542-9.91 1.776-2.175 2.58-5.274.139-7.303-1.866-1.557-4.75-1.633-6.998-1.035-6.401 1.702-11.707 7.039-15.23 12.418-4.258 6.504-6.464 14.113-8.614 21.514-.326 1.112.562 2.133 1.658 2.182 15.535.639 28.629 10.396 41.744 17.678 3.447 1.918 7.011 3.954 10.77 5.191 3.544 1.168 7.532 1.133 10.549-1.285 3.447-2.759 2.816-6.998 2.33-10.896a186.298 186.298 0 0 0-2.094-13.141 181.635 181.635 0 0 0-8.288-29.026c-.964.562-1.921 1.118-2.885 1.681a106.568 106.568 0 0 0 20.64 19.743c3.883 2.835 7.968 5.427 12.22 7.671 4.189 2.217 9.057 4.024 13.752 2.28 4.196-1.557 7.234-5.011 9.717-8.61 2.712-3.933 4.931-8.179 6.769-12.592 3.71-8.93 5.624-18.554 6.172-28.192.271-4.754-.055-9.555.548-14.288.506-3.968 1.803-8.13 5.354-10.361 1.346-.848.909-2.571-.409-3.12-5.999-2.495-12.615-2.293-18.927-1.431a106.297 106.297 0 0 0-18.739 4.301c-5.957 1.953-11.811 4.392-17.324 7.394-4.904 2.668-9.668 5.962-13.164 10.382-2.552 3.231-7.511 11.091-1.72 13.773 2.213 1.028 4.848.438 6.991-.473 2.608-1.112 5.112-2.494 7.49-4.037 9.855-6.386 17.949-15.601 24.579-25.218 6.769-9.819 12.255-21.709 10.528-33.926-1.519-10.722-8.898-18.93-14.19-27.949-2.656-4.524-4.404-9.103-4.972-14.336-.299-2.738-1.034-5.316-3.454-6.9-2.074-1.363-4.716-1.564-7.109-1.175-5.493.904-9.786 5.337-12.879 9.666-3.592 5.024-6.311 10.667-8.565 16.4-4.764 12.126-7.559 25.086-10.243 37.796-2.872 13.586-5.403 27.248-7.498 40.972-.52 3.412-1.068 6.824-1.602 10.243-.235 1.487 2.012 2.161 2.296.632l.021.007Z"/><path fill="#442E2E" d="M187.982 239c-.943 0-1.886-.021-2.836-.056a1.507 1.507 0 0 1-1.45-1.563c.035-.834.708-1.46 1.561-1.453 3.253.119 6.533.028 9.827-.284a1.505 1.505 0 0 1 1.637 1.362 1.505 1.505 0 0 1-1.359 1.64 80.288 80.288 0 0 1-7.386.347l.006.007Zm-12.74-1.168c-.097 0-.194-.006-.284-.027a68.673 68.673 0 0 1-9.897-2.71 1.51 1.51 0 0 1-.915-1.925 1.503 1.503 0 0 1 1.921-.918 64.32 64.32 0 0 0 9.453 2.592 1.508 1.508 0 0 1-.285 2.988h.007Zm29.899-.722a1.508 1.508 0 0 1-.32-2.981 91.338 91.338 0 0 0 9.516-2.627 1.509 1.509 0 0 1 .957 2.863 95.1 95.1 0 0 1-9.828 2.71 1.648 1.648 0 0 1-.319.035h-.006Zm-48.742-6.004c-.243 0-.486-.056-.707-.181a66.77 66.77 0 0 1-8.649-5.531 1.51 1.51 0 0 1-.298-2.113 1.503 1.503 0 0 1 2.108-.299 64.718 64.718 0 0 0 8.26 5.282 1.508 1.508 0 0 1 .618 2.043 1.51 1.51 0 0 1-1.332.799Zm67.765-.313a1.503 1.503 0 0 1-1.373-.896c-.34-.765 0-1.654.763-1.995 2.954-1.32 5.93-2.814 8.856-4.44a1.504 1.504 0 0 1 2.046.59 1.51 1.51 0 0 1-.589 2.05 118.018 118.018 0 0 1-9.093 4.559c-.201.09-.409.132-.61.132Zm17.547-9.729a1.507 1.507 0 0 1-.833-2.765 135.914 135.914 0 0 0 8.059-5.81 1.507 1.507 0 0 1 2.115.264c.507.66.389 1.605-.263 2.12a140.048 140.048 0 0 1-8.239 5.941c-.257.174-.548.25-.832.25h-.007Zm-101.263-2.029c-.396 0-.791-.153-1.089-.465a57.173 57.173 0 0 1-6.415-8.068 1.513 1.513 0 0 1 .43-2.092 1.506 1.506 0 0 1 2.087.431 54.348 54.348 0 0 0 6.075 7.637 1.508 1.508 0 0 1-1.088 2.55v.007Zm117.124-10.278a1.51 1.51 0 0 1-.999-2.64 186.518 186.518 0 0 0 7.261-6.824 1.5 1.5 0 0 1 2.129.014c.583.59.583 1.549-.013 2.133a189.005 189.005 0 0 1-7.38 6.935 1.487 1.487 0 0 1-.998.382Zm-128.013-6.462a1.515 1.515 0 0 1-1.401-.952 48.3 48.3 0 0 1-2.788-9.972 1.508 1.508 0 1 1 2.975-.494 45.427 45.427 0 0 0 2.615 9.347 1.507 1.507 0 0 1-.839 1.96 1.48 1.48 0 0 1-.562.111Zm142.306-7.644c-.367 0-.735-.132-1.026-.403a1.516 1.516 0 0 1-.083-2.134 289.077 289.077 0 0 0 6.658-7.456 1.496 1.496 0 0 1 2.122-.153c.624.542.693 1.501.153 2.127a308.729 308.729 0 0 1-6.728 7.532c-.298.32-.7.487-1.102.487h.006Zm13.157-15.184c-.34 0-.68-.111-.957-.34a1.52 1.52 0 0 1-.208-2.127 564.405 564.405 0 0 0 6.29-7.804 1.513 1.513 0 0 1 2.115-.243c.652.521.756 1.466.243 2.12a634.897 634.897 0 0 1-6.325 7.838 1.505 1.505 0 0 1-1.165.549l.007.007Zm12.532-15.712c-.326 0-.652-.104-.929-.326a1.508 1.508 0 0 1-.25-2.12l1.338-1.702a1464.57 1464.57 0 0 1 4.876-6.199 1.506 1.506 0 0 1 2.115-.25c.652.514.763 1.466.243 2.119-1.623 2.057-3.246 4.128-4.869 6.192l-1.338 1.702a1.517 1.517 0 0 1-1.186.577v.007Zm12.484-15.753a1.51 1.51 0 0 1-1.172-2.46 450.089 450.089 0 0 1 6.429-7.769 1.503 1.503 0 0 1 2.122-.174 1.51 1.51 0 0 1 .173 2.126 515.82 515.82 0 0 0-6.387 7.714 1.49 1.49 0 0 1-1.165.556v.007Zm381.249-10.389h-.034a219.139 219.139 0 0 1-10.091-.48 1.498 1.498 0 0 1-1.394-1.612c.055-.834.776-1.48 1.609-1.397 3.336.237 6.685.396 9.952.473a1.506 1.506 0 0 1 1.47 1.543 1.506 1.506 0 0 1-1.505 1.473h-.007Zm10.043-.021a1.504 1.504 0 0 1-1.505-1.466 1.506 1.506 0 0 1 1.463-1.55 190.39 190.39 0 0 0 9.945-.556c.826-.049 1.554.549 1.623 1.376a1.508 1.508 0 0 1-1.373 1.626c-3.35.278-6.748.466-10.105.563h-.041l-.007.007Zm-30.051-1.383c-.056 0-.111 0-.174-.007-3.28-.375-6.644-.827-10-1.348a1.504 1.504 0 0 1-1.256-1.723 1.508 1.508 0 0 1 1.72-1.258c3.322.514 6.644.959 9.89 1.327a1.507 1.507 0 0 1-.166 3.002l-.014.007Zm50.052-.271a1.509 1.509 0 0 1-.201-3.002c3.267-.445 6.575-.987 9.827-1.598a1.507 1.507 0 0 1 1.762 1.202 1.513 1.513 0 0 1-1.2 1.765 197.035 197.035 0 0 1-9.98 1.626 2.076 2.076 0 0 1-.208.014v-.007Zm-69.887-2.773c-.097 0-.188-.007-.285-.028a326.357 326.357 0 0 1-9.876-2.049 1.51 1.51 0 0 1-1.144-1.8 1.519 1.519 0 0 1 1.796-1.147c3.288.737 6.582 1.418 9.786 2.029a1.5 1.5 0 0 1 1.193 1.765 1.506 1.506 0 0 1-1.477 1.223l.007.007Zm-328.389-.472a1.53 1.53 0 0 1-1.012-.389 1.516 1.516 0 0 1-.111-2.134 252.71 252.71 0 0 1 6.914-7.373 1.508 1.508 0 0 1 2.15 2.113 246.984 246.984 0 0 0-6.831 7.289 1.517 1.517 0 0 1-1.117.501l.007-.007Zm417.993-.48a1.509 1.509 0 0 1-.353-2.974 198.464 198.464 0 0 0 9.619-2.592 1.511 1.511 0 0 1 .853 2.898 197.61 197.61 0 0 1-9.765 2.627 1.583 1.583 0 0 1-.354.041Zm-109.197-3.412a1.33 1.33 0 0 1-.367-.048 437.641 437.641 0 0 1-9.737-2.585 1.507 1.507 0 0 1-1.048-1.856 1.501 1.501 0 0 1 1.852-1.049c3.218.889 6.443 1.751 9.668 2.564a1.506 1.506 0 0 1 1.089 1.835 1.51 1.51 0 0 1-1.457 1.139Zm128.443-2.279a1.505 1.505 0 0 1-1.422-1.008 1.512 1.512 0 0 1 .923-1.925 201.645 201.645 0 0 0 9.321-3.523 1.514 1.514 0 0 1 1.962.834 1.513 1.513 0 0 1-.832 1.967 211.58 211.58 0 0 1-9.46 3.572 1.582 1.582 0 0 1-.499.083h.007Zm-147.792-3.078c-.139 0-.285-.021-.43-.063a621.53 621.53 0 0 1-9.62-2.96 1.51 1.51 0 0 1-.984-1.89 1.502 1.502 0 0 1 1.886-.987 698.27 698.27 0 0 0 9.578 2.946 1.508 1.508 0 0 1-.43 2.954Zm166.399-4.462a1.509 1.509 0 0 1-.631-2.877 205.106 205.106 0 0 0 8.947-4.392 1.498 1.498 0 0 1 2.032.647 1.514 1.514 0 0 1-.645 2.036 212.293 212.293 0 0 1-9.078 4.454 1.441 1.441 0 0 1-.625.139v-.007Zm-441.781-.639c-.402 0-.804-.16-1.103-.487a1.515 1.515 0 0 1 .084-2.133 176.488 176.488 0 0 1 7.622-6.678 1.506 1.506 0 0 1 2.122.208 1.514 1.514 0 0 1-.208 2.127 162.1 162.1 0 0 0-7.49 6.56 1.5 1.5 0 0 1-1.027.403Zm256.233-.931c-.152 0-.312-.021-.471-.077-3.184-1.049-6.36-2.105-9.536-3.175a1.51 1.51 0 0 1-.951-1.911 1.518 1.518 0 0 1 1.908-.952c3.169 1.07 6.339 2.126 9.515 3.168a1.507 1.507 0 0 1-.465 2.94v.007Zm-19.03-6.407a1.48 1.48 0 0 1-.486-.084l-9.501-3.259a1.511 1.511 0 0 1-.936-1.918 1.498 1.498 0 0 1 1.914-.938l9.494 3.259a1.505 1.505 0 0 1 .936 1.918 1.51 1.51 0 0 1-1.428 1.022h.007Zm222.388-1.286a1.51 1.51 0 0 1-.755-2.814 216.384 216.384 0 0 0 8.502-5.212 1.508 1.508 0 0 1 1.63 2.536 217.398 217.398 0 0 1-8.621 5.289 1.483 1.483 0 0 1-.756.201Zm-444.063-4.107a1.508 1.508 0 0 1-.874-2.738 128.19 128.19 0 0 1 7.865-5.198l.513-.312c.715-.431 1.693-.237 2.123.48.43.715.256 1.604-.458 2.042l-.61.375a125.58 125.58 0 0 0-7.685 5.08 1.495 1.495 0 0 1-.874.278v-.007Zm202.679-1.105a1.71 1.71 0 0 1-.486-.076 1685.063 1685.063 0 0 0-9.508-3.197 1.504 1.504 0 0 1-.957-1.904 1.5 1.5 0 0 1 1.9-.959c3.177 1.056 6.353 2.12 9.529 3.197a1.508 1.508 0 0 1 .944 1.911 1.509 1.509 0 0 1-1.422 1.021v.007Zm258.258-5.677a1.509 1.509 0 0 1-.874-2.738 214.977 214.977 0 0 0 7.983-5.976 1.5 1.5 0 0 1 2.115.257 1.51 1.51 0 0 1-.256 2.12 214.167 214.167 0 0 1-8.094 6.059 1.502 1.502 0 0 1-.874.278Zm-277.323-.632c-.153 0-.306-.021-.458-.07a682.847 682.847 0 0 0-8.808-2.759l-.756-.23a1.506 1.506 0 0 1-.999-1.882 1.499 1.499 0 0 1 1.88-1.001l.749.23c2.954.903 5.909 1.827 8.856 2.772a1.514 1.514 0 0 1 .978 1.897 1.513 1.513 0 0 1-1.436 1.05l-.006-.007Zm-166.421-2.926a1.502 1.502 0 0 1-1.352-.84 1.514 1.514 0 0 1 .679-2.023 130.489 130.489 0 0 1 9.259-4.163 1.505 1.505 0 0 1 1.956.834 1.515 1.515 0 0 1-.832 1.967 128.988 128.988 0 0 0-9.051 4.065 1.54 1.54 0 0 1-.666.16h.007Zm147.203-2.884c-.132 0-.271-.02-.403-.056a403.48 403.48 0 0 0-9.667-2.57 1.5 1.5 0 0 1-1.089-1.828 1.522 1.522 0 0 1 1.831-1.098 398.37 398.37 0 0 1 9.737 2.592 1.508 1.508 0 0 1-.402 2.96h-.007Zm-128.609-4.642c-.638 0-1.235-.41-1.436-1.05-.25-.791.187-1.64.978-1.896a143.918 143.918 0 0 1 9.765-2.738 1.5 1.5 0 0 1 1.817 1.112 1.505 1.505 0 0 1-1.11 1.82 139.538 139.538 0 0 0-9.564 2.683 1.51 1.51 0 0 1-.457.07h.007Zm109.134-.27a1.66 1.66 0 0 1-.326-.036 366.983 366.983 0 0 0-9.785-2.043 1.503 1.503 0 0 1-1.193-1.765 1.497 1.497 0 0 1 1.761-1.195 346.96 346.96 0 0 1 9.869 2.057 1.51 1.51 0 0 1-.326 2.981Zm331.801-1.057c-.423 0-.846-.18-1.144-.521a1.51 1.51 0 0 1 .159-2.127 207.597 207.597 0 0 0 7.393-6.699 1.508 1.508 0 0 1 2.074 2.189 213.8 213.8 0 0 1-7.497 6.796 1.523 1.523 0 0 1-.985.369v-.007Zm-351.511-2.731c-.076 0-.159 0-.236-.021-3.329-.528-6.651-1-9.883-1.404a1.508 1.508 0 0 1 .368-2.995c3.266.403 6.623.876 9.994 1.418a1.507 1.507 0 0 1-.236 2.995l-.007.007Zm-69.936-.695a1.514 1.514 0 0 1-1.484-1.25 1.511 1.511 0 0 1 1.227-1.745c3.274-.57 6.644-1.056 10.022-1.432a1.51 1.51 0 0 1 1.664 1.334 1.501 1.501 0 0 1-1.324 1.668c-3.322.376-6.63.848-9.841 1.411a1.7 1.7 0 0 1-.264.02v-.006Zm50.018-1.751h-.125a229.065 229.065 0 0 0-9.952-.626 1.506 1.506 0 0 1-1.443-1.57 1.506 1.506 0 0 1 1.568-1.446c3.28.14 6.671.348 10.077.633.832.07 1.442.799 1.373 1.626a1.505 1.505 0 0 1-1.498 1.383Zm-30.086-.514a1.508 1.508 0 0 1-.083-3.016 192.29 192.29 0 0 1 10.105-.306c.894-.056 1.512.667 1.512 1.5 0 .835-.666 1.516-1.498 1.516-3.364.02-6.714.118-9.953.306h-.083Zm416.079-8.145c-.374 0-.749-.139-1.04-.417a1.514 1.514 0 0 1-.042-2.133 213.797 213.797 0 0 0 6.728-7.366 1.496 1.496 0 0 1 2.122-.146 1.51 1.51 0 0 1 .145 2.126 207.009 207.009 0 0 1-6.824 7.477 1.496 1.496 0 0 1-1.089.466v-.007Zm13.184-15.163a1.514 1.514 0 0 1-1.179-2.446 198.086 198.086 0 0 0 5.979-7.984 1.5 1.5 0 0 1 2.101-.355c.68.487.832 1.425.354 2.106a209.978 209.978 0 0 1-6.069 8.102 1.52 1.52 0 0 1-1.186.577Zm11.645-16.379a1.508 1.508 0 0 1-1.27-2.32 198.621 198.621 0 0 0 5.147-8.541 1.505 1.505 0 1 1 2.614 1.494 193.761 193.761 0 0 1-5.229 8.672 1.49 1.49 0 0 1-1.269.695h.007Zm9.924-17.47a1.505 1.505 0 0 1-1.338-2.182 183.225 183.225 0 0 0 4.223-9.027 1.507 1.507 0 1 1 2.761 1.21 193.493 193.493 0 0 1-4.3 9.172 1.5 1.5 0 0 1-1.346.834v-.007Zm8.038-18.415a1.508 1.508 0 0 1-1.408-2.036c.264-.702.521-1.41.777-2.12a1.51 1.51 0 0 1 1.928-.91 1.506 1.506 0 0 1 .902 1.932c-.257.716-.52 1.432-.791 2.147a1.5 1.5 0 0 1-1.408.98v.007Z"/></svg>