<svg xmlns="http://www.w3.org/2000/svg" width="170" height="170" viewBox="0 0 170 170"><circle cx="85" cy="85" r="84.5" fill="none" stroke="#ABABAB" stroke-dasharray="8 8"/><path fill="#FBD0C9" d="M85.88 132.997c-26.87-.257-45.973-22.334-48.188-49.108-3.19-38.592 31.48-52.12 48.065-30.983 14.07 17.931 49.5 5.049 49.243 31.914-.257 26.865-22.247 48.434-49.118 48.177h-.002Z"/><path fill="#C8215D" d="M109.067 87.494a1.113 1.113 0 0 1-1.106-1.263c.634-4.684 1.041-9.639 1.207-14.726a1.113 1.113 0 1 1 2.226.074c-.17 5.162-.583 10.192-1.225 14.95a1.115 1.115 0 0 1-1.102.965ZM77.43 132.87c-8.135 0-16.417-6.806-23.322-19.162-5.86-10.486-9.936-23.623-10.642-34.284a1.113 1.113 0 1 1 2.223-.145c1.336 20.205 15.569 51.365 31.74 51.365 9.95 0 17.53-5.856 23.175-17.902a1.114 1.114 0 1 1 2.017.944c-2.716 5.798-5.974 10.334-9.679 13.487-4.445 3.78-9.665 5.697-15.512 5.697Z"/><path fill="#C8215D" d="M112.439 119.415a17.177 17.177 0 0 1-11.897-4.756c-3.454-3.29-5.358-7.727-5.358-12.495 0-3.975 1.384-7.856 3.9-10.925a17.318 17.318 0 0 1 9.749-5.948 17.395 17.395 0 0 1 3.606-.377 17.287 17.287 0 0 1 9.239 2.678c.503.32.666.98.366 1.497l-8.75 15.153a1.112 1.112 0 0 1-1.856.111l-5.856-7.818a1.57 1.57 0 0 0-1.047-.617 1.577 1.577 0 0 0-1.794 1.344c-.06.421.046.84.298 1.177l8.478 11.316a1.589 1.589 0 0 0 2.223.319c.36-.269.581-.67.623-1.127a1.14 1.14 0 0 1 .144-.454l9.7-16.8a1.113 1.113 0 0 1 1.844-.126 17.068 17.068 0 0 1 3.642 10.598c0 9.513-7.74 17.252-17.254 17.252v-.002Zm0-32.274c-1.059 0-2.117.111-3.143.33-6.886 1.462-11.885 7.642-11.885 14.693a14.89 14.89 0 0 0 4.667 10.881 14.962 14.962 0 0 0 10.361 4.143c8.286 0 15.026-6.74 15.026-15.024 0-2.81-.758-5.488-2.204-7.839l-8.713 15.089a3.813 3.813 0 0 1-1.472 2.444 3.82 3.82 0 0 1-5.341-.768l-8.478-11.317a3.782 3.782 0 0 1-.72-2.826 3.779 3.779 0 0 1 1.486-2.512 3.784 3.784 0 0 1 2.829-.72 3.8 3.8 0 0 1 2.514 1.486l4.845 6.466 7.352-12.732-.17-.09a14.841 14.841 0 0 0-6.954-1.704ZM46.934 132.87c-.27 0-.543-.1-.758-.298-8.025-7.457-5.957-13.817-2.808-17.84 1.359-1.735-.211-4.166-2.886-7.99-2.525-3.605-5.385-7.693-5.479-12.417-.235-11.66 11.468-18.634 23.858-26.019 2.812-1.675 5.719-3.407 8.536-5.222 12-7.727 17.648-13.698 20.273-17.346 2.612-3.63 2.73-5.607 2.73-5.624a1.114 1.114 0 0 1 2.226 0c0 .26-.089 2.672-3.148 6.925-3.982 5.534-11.005 11.561-20.874 17.918-2.849 1.835-5.774 3.577-8.601 5.262-6.148 3.663-11.952 7.122-16.183 11.01-4.59 4.216-6.683 8.364-6.59 13.05.081 4.047 2.736 7.84 5.077 11.186 2.704 3.865 5.258 7.516 2.814 10.64-3.743 4.782-2.878 9.773 2.572 14.834a1.114 1.114 0 0 1-.758 1.931h-.001Z"/><path fill="#C8215D" d="m120.584 88.78-1.585-1.565-.029.03c.033-.039 3.148-4.05-9.419-15.192-7.578-6.72-12.37-14.965-15.056-20.7-2.91-6.212-4.02-10.787-4.065-10.979a1.114 1.114 0 0 1 2.166-.517c.05.209 4.493 18.17 18.434 30.531 6.859 6.08 10.403 11.19 10.533 15.187.068 2.085-.872 3.1-.98 3.207l.001-.001Zm-58.554.302c-1.535 0-2.886-.28-4.008-.661-3.486-1.179-5.532-3.516-5.618-3.613a1.113 1.113 0 0 1 1.685-1.459c.29.331 7.033 7.813 16.787-.133a1.113 1.113 0 1 1 1.407 1.725c-3.876 3.158-7.388 4.141-10.253 4.141Zm30.033 0c-1.536 0-2.886-.28-4.009-.661-3.485-1.179-5.531-3.516-5.617-3.613a1.113 1.113 0 0 1 1.684-1.459c.29.331 7.034 7.813 16.788-.133a1.113 1.113 0 1 1 1.407 1.725c-3.877 3.158-7.388 4.141-10.253 4.141Z"/><path fill="#C8215D" d="M77.869 110.019c-1.802 0-3.615-.341-4.701-1.465-.729-.754-1.431-2.167-.65-4.627 2.314-7.284 4.792-22.976.033-26.238-5.475-3.754-11.312-4.837-17.348-3.216-4.557 1.223-7.537 3.612-7.566 3.636a1.112 1.112 0 1 1-1.407-1.725c.134-.109 3.314-2.675 8.305-4.036 4.623-1.26 11.72-1.675 19.277 3.504 6.793 4.657 2.384 23.862.83 28.748-.36 1.134-.317 1.945.128 2.406 1.203 1.245 5.362.798 7.931.082a1.113 1.113 0 1 1 .6 2.145c-.444.125-2.925.785-5.432.785v.001Zm.993 9.867c-1.463 0-2.766-.209-3.855-.492-3.414-.885-5.52-2.652-5.61-2.725a1.114 1.114 0 0 1 1.44-1.7c.026.02 1.877 1.552 4.82 2.294 3.904.985 7.824.187 11.649-2.369a1.115 1.115 0 0 1 1.239 1.852c-3.587 2.397-6.924 3.142-9.683 3.142v-.002Zm4.137-43.025a1.114 1.114 0 0 1-.787-1.905c.271-.273 6.823-6.583 22.083-.242.567.237.838.888.602 1.457a1.117 1.117 0 0 1-1.457.601c-7.237-3.007-12.212-2.899-15.11-2.28-3.093.661-4.534 2.03-4.548 2.044-.218.217-.5.325-.783.325Zm29.796 35.754a3.816 3.816 0 0 1-3.059-1.527l-8.477-11.316a3.778 3.778 0 0 1-.72-2.827 3.778 3.778 0 0 1 1.486-2.512 3.784 3.784 0 0 1 2.829-.72 3.8 3.8 0 0 1 2.514 1.486l4.845 6.466 9.326-16.152a3.823 3.823 0 0 1 5.213-1.396 3.787 3.787 0 0 1 1.775 2.318 3.784 3.784 0 0 1-.378 2.894l-11.597 20.084a3.796 3.796 0 0 1-3.755 3.202h-.002ZM104.304 95.9a1.577 1.577 0 0 0-1.561 1.359c-.06.42.046.839.298 1.176l8.478 11.317a1.587 1.587 0 0 0 2.222.318c.36-.269.581-.669.624-1.127a1.15 1.15 0 0 1 .144-.454l11.708-20.275c.211-.365.266-.792.156-1.203a1.584 1.584 0 0 0-2.906-.386l-10.171 17.613a1.114 1.114 0 0 1-1.856.112l-5.856-7.818a1.571 1.571 0 0 0-1.047-.617 1.523 1.523 0 0 0-.233-.017v.002Z"/></svg>