<svg xmlns="http://www.w3.org/2000/svg" width="143" height="40" fill="none" viewBox="0 0 143 40"><g fill="#fff" fill-rule="evenodd" clip-rule="evenodd"><path d="M13.68 20.375c-1.243-1.051-2.002-1.07-3.437-.57-.026.192.041.573.542.877-.787-.368-.883-.597-1.032-.903.784-1.073 3.1-1.142 3.928.596Z"/><path d="M13.675 20.38c-.619-.524-1.12-.79-1.644-.864-.523-.075-1.07.045-1.785.295a.723.723 0 0 0 .116.468c.082.134.214.272.423.397 0 0 .003.005 0 .008 0 .003-.005.003-.008 0-.771-.36-.882-.588-1.024-.884l-.01-.021v-.005c.154-.213.368-.386.621-.514a2.49 2.49 0 0 1 1.306-.245c.465.035.934.194 1.327.5.273.213.51.498.684.86v.008h-.008l.002-.002Zm-1.64-.878c.52.072 1.016.335 1.627.852a2.353 2.353 0 0 0-.668-.83 2.442 2.442 0 0 0-1.321-.498 2.496 2.496 0 0 0-1.3.245 1.698 1.698 0 0 0-.615.508l.008.019c.136.282.242.505.934.838a1.174 1.174 0 0 1-.349-.351.746.746 0 0 1-.118-.48s0-.002.005-.005c.717-.25 1.267-.372 1.793-.298h.003Z"/><path d="M21.76 10.245a.398.398 0 0 1-.182-.519.375.375 0 0 1 .503-.189 15.752 15.752 0 0 1 6.511 5.914A16.272 16.272 0 0 1 31 24.011c0 4.413-1.734 8.411-4.54 11.305-2.805 2.893-6.678 4.681-10.96 4.681-4.281 0-8.155-1.788-10.96-4.681C1.734 32.425 0 28.43 0 24.014c0-3.183.903-6.151 2.46-8.643 1.605-2.57 3.91-4.639 6.632-5.917a.375.375 0 0 1 .5.197.394.394 0 0 1-.19.517c-2.591 1.214-4.78 3.18-6.308 5.624a15.482 15.482 0 0 0-2.338 8.222c0 4.198 1.65 7.998 4.318 10.748 2.666 2.752 6.351 4.453 10.42 4.453 4.07 0 7.756-1.7 10.422-4.453 2.668-2.752 4.317-6.55 4.317-10.748 0-2.994-.838-5.79-2.289-8.142a14.944 14.944 0 0 0-6.19-5.627h.007Z"/><path d="M13.466 12.976c0-.216.168-.392.377-.392.21 0 .38.174.38.39.03 4.04-3.13 5.828-6.35 7.649-3.393 1.921-6.854 3.88-6.216 8.674a.39.39 0 0 1-.325.44.382.382 0 0 1-.426-.336c-.71-5.326 2.98-7.415 6.601-9.465 3.017-1.709 5.983-3.388 5.957-6.963l.002.003Z"/><path d="M22.729 20.154a.38.38 0 0 1 .42-.343.386.386 0 0 1 .333.434 18.83 18.83 0 0 1-.345 2.036c-.148.65-.339 1.336-.581 2.047-1.487 4.373-6.899 6.55-6.914 6.558a.374.374 0 0 1-.279 0c-.015-.005-5.435-2.182-6.914-6.558a20.288 20.288 0 0 1-.924-4.099.386.386 0 0 1 .333-.434.38.38 0 0 1 .421.343 19.326 19.326 0 0 0 .883 3.934c1.233 3.644 5.512 5.667 6.338 6.03.826-.363 5.102-2.389 6.338-6.03.23-.676.413-1.336.558-1.967.157-.694.266-1.35.333-1.948v-.003Z"/><path d="M11.12 28.062a.382.382 0 0 1 .385-.383c.21.003.377.181.372.397-.047 2.544-.457 4.288-1.422 5.544-.968 1.264-2.462 2.002-4.672 2.537a.382.382 0 0 1-.456-.293.393.393 0 0 1 .284-.471c2.038-.495 3.401-1.153 4.247-2.257.852-1.11 1.216-2.707 1.257-5.074h.005Z"/><path d="M7.61 20.397a.23.23 0 0 1 .235-.227.233.233 0 0 1 .22.243c-.096 2.467-.808 4.57-1.476 6.54-1.053 3.108-1.99 5.88-.109 9.177a.235.235 0 0 1-.08.32.22.22 0 0 1-.31-.083c-1.987-3.484-1.016-6.351.073-9.569.655-1.94 1.357-4.008 1.45-6.404l-.002.003Zm2.992-13.354a9.62 9.62 0 0 1-.266-1.424 10.52 10.52 0 0 1 .054-2.686.381.381 0 0 1 .431-.33c.057.008.109.03.152.059.664.386 1.242.814 1.745 1.272.268.245.516.498.743.758.093-.543.232-1.099.423-1.658.297-.867.726-1.754 1.317-2.638.023-.103.051-.204.152-.287a.304.304 0 0 1 .245-.11c.088-.007.17.028.245.11.104.085.13.186.152.287.592.887 1.017 1.77 1.317 2.638.193.562.33 1.115.425 1.658a9.65 9.65 0 0 1 2.509-2.044.375.375 0 0 1 .516.152.366.366 0 0 1 .044.133c.14.961.147 1.855.054 2.686a9.765 9.765 0 0 1-.266 1.424 8.12 8.12 0 0 1 .86-.298 8.868 8.868 0 0 1 1.98-.33.383.383 0 0 1 .397.37.416.416 0 0 1-.018.138c-.71 2.308-2.04 3.998-3.652 5.068a8.25 8.25 0 0 1-4.568 1.376 8.256 8.256 0 0 1-4.568-1.376c-1.613-1.07-2.942-2.758-3.652-5.068a.395.395 0 0 1 .248-.492.37.37 0 0 1 .16-.016 8.97 8.97 0 0 1 1.954.327c.299.088.585.186.859.298l.008.003Zm.487-1.512c.086.761.261 1.461.496 2.097a.398.398 0 0 1-.018.325.375.375 0 0 1-.511.165 7.533 7.533 0 0 0-1.515-.623c-.39-.112-.805-.2-1.246-.253.683 1.837 1.809 3.2 3.146 4.086a7.521 7.521 0 0 0 4.157 1.251c1.45 0 2.9-.418 4.158-1.25 1.34-.887 2.462-2.25 3.146-4.087a7.684 7.684 0 0 0-2.762.876.36.36 0 0 1-.31.019.396.396 0 0 1-.221-.503 9.03 9.03 0 0 0 .495-2.103 9.428 9.428 0 0 0 .018-1.895c-.42.277-.802.575-1.143.886a8.632 8.632 0 0 0-1.2 1.352.384.384 0 0 1-.271.157.383.383 0 0 1-.41-.356 10.068 10.068 0 0 0-.504-2.377 10.579 10.579 0 0 0-.999-2.106c-.436.708-.76 1.411-.998 2.106a9.94 9.94 0 0 0-.503 2.36.392.392 0 0 1-.153.296.37.37 0 0 1-.529-.08 8.735 8.735 0 0 0-2.343-2.238c-.06.67-.05 1.301.018 1.895h.002Z"/><path d="M15.425 11.935c-.281-.335-1.014-1.333-1.014-2.59 0-.75.258-1.589 1.022-2.425a.226.226 0 0 1 .322-.01l.01.01c.765.836 1.023 1.675 1.023 2.425 0 1.262-.738 2.26-1.017 2.593a.221.221 0 0 1-.32.024c-.01-.008-.018-.019-.026-.027Zm-.557-2.59c0 .9.436 1.656.733 2.066.296-.41.733-1.166.733-2.066 0-.588-.189-1.243-.733-1.91-.545.667-.733 1.322-.733 1.91Zm-.682 14.541c.258-.71.945-1.08.295-4.87 1.022 2.16.624 3.736.103 4.878.62.748 1.886.205 1.809.309-1.241 1.666-2.258-.173-2.207-.317Zm1.291 2.672c-.774-.308-.932.45-2.256-.415.496.314 1.512-.82 2.256-.096.008.008.015.014.02.022l.021-.022c.743-.721 1.76.413 2.256.096-1.324.865-1.482.107-2.256.415h-.041Zm-1.572-8.014c-.423.045-1.187-.596-2.144-.94.147-.146.291-.298.43-.447.253.09.496.208.718.346.413.258.766.602.996 1.041Zm3.105 8.203c.121.738-1.03 1.1-1.505 1.1-.513 0-1.603-.392-1.486-1.1.83.719 2.162.719 2.99 0Zm-4.542-14.314a.23.23 0 0 1 .27-.179.235.235 0 0 1 .174.28c-.646 2.989-3.366 4.527-6.13 6.092-2.63 1.491-5.3 3.003-6.116 5.792a.226.226 0 0 1-.284.157.235.235 0 0 1-.152-.292c.87-2.974 3.623-4.533 6.333-6.07 2.67-1.51 5.303-3.002 5.905-5.78Z"/><path d="M11.2 11.695a.227.227 0 0 1 .297-.13.239.239 0 0 1 .127.306c-.953 2.42-3.389 3.801-5.859 5.199-1.7.963-3.416 1.934-4.635 3.247a.223.223 0 0 1-.322.008.24.24 0 0 1-.008-.333c1.267-1.368 3.014-2.356 4.746-3.338 2.4-1.357 4.764-2.699 5.657-4.964l-.002.005Zm-1.249-1.054a.223.223 0 0 1 .307-.095.237.237 0 0 1 .093.316c-1.086 2.092-3.334 3.365-5.61 4.653-.826.468-1.654.937-2.418 1.44a.222.222 0 0 1-.313-.072.237.237 0 0 1 .07-.322c.79-.52 1.618-.988 2.444-1.456 2.217-1.256 4.408-2.497 5.43-4.461l-.003-.003ZM5.915 21.296a.23.23 0 0 1 .25-.21.234.234 0 0 1 .204.258c-.211 2.076-.828 3.894-1.409 5.614-.766 2.265-1.473 4.352-1.079 6.577a.231.231 0 0 1-.183.271.229.229 0 0 1-.266-.189c-.418-2.345.308-4.49 1.097-6.816.573-1.693 1.18-3.484 1.386-5.507v.002Zm-1.778 1.057a.229.229 0 0 1 .263-.192.235.235 0 0 1 .186.272c-.281 1.631-.782 3.109-1.26 4.522-.467 1.379-.91 2.69-1.099 4.009a.23.23 0 0 1-.258.2.235.235 0 0 1-.193-.267c.193-1.355.645-2.691 1.12-4.094.472-1.392.965-2.848 1.24-4.448v-.002Zm4.439 1.817a.227.227 0 0 1 .281-.162.236.236 0 0 1 .158.29c-.25.922-.55 1.803-.84 2.657-.941 2.784-1.795 5.3-.613 8.153a.238.238 0 0 1-.122.309.227.227 0 0 1-.3-.126c-1.25-3.018-.37-5.616.602-8.49.287-.847.58-1.715.831-2.63h.003Z"/><path d="M9.567 26.098a.226.226 0 0 1 .289-.146.237.237 0 0 1 .142.298c-.041.125-.14.415-.238.705-.877 2.587-1.675 4.946-.836 7.546a.236.236 0 0 1-.144.295.226.226 0 0 1-.287-.149c-.885-2.755-.064-5.182.839-7.849l.237-.705-.002.005Zm1.14 1.322a.226.226 0 0 1 .29-.146.237.237 0 0 1 .142.299c-.338 1.008-.643 1.985-.821 2.957-.176.963-.23 1.924-.065 2.917a.235.235 0 0 1-.185.271.229.229 0 0 1-.264-.191c-.175-1.052-.118-2.068.067-3.083.184-1.006.496-2.001.836-3.023Zm6.803-7.045c1.244-1.051 2.003-1.07 3.438-.57.026.192-.041.573-.542.877.787-.368.883-.597 1.032-.903-.782-1.073-3.1-1.142-3.928.596Z"/><path d="M17.528 20.354c.612-.514 1.11-.777 1.629-.852.526-.074 1.076.046 1.794.298a.727.727 0 0 1-.116.484 1.206 1.206 0 0 1-.349.352c.692-.333.797-.556.934-.838l.008-.019a1.749 1.749 0 0 0-.614-.508 2.491 2.491 0 0 0-1.301-.245 2.457 2.457 0 0 0-1.321.498 2.353 2.353 0 0 0-.669.83h.005Zm1.632-.838c-.524.074-1.025.34-1.645.865h-.007c-.003 0-.005-.006 0-.008.173-.362.41-.647.684-.86a2.492 2.492 0 0 1 1.326-.5c.465-.035.927.053 1.306.244.25.128.467.301.622.514v.005l-.01.022c-.142.295-.253.524-1.025.883h-.008v-.008a1.24 1.24 0 0 0 .424-.396.722.722 0 0 0 .116-.469c-.715-.25-1.262-.37-1.786-.295l.003.003Z"/><path d="M16.966 12.973c0-.216.17-.389.38-.389.208 0 .376.176.376.392-.026 3.574 2.94 5.254 5.956 6.963 3.314 1.876 6.687 3.787 6.687 8.216 0 .216-.17.392-.38.392a.386.386 0 0 1-.379-.392c0-3.966-3.177-5.765-6.294-7.53-3.218-1.82-6.38-3.611-6.349-7.65l.003-.002Zm2.346 15.1a.384.384 0 0 1 .371-.397.383.383 0 0 1 .385.384c.044 2.366.408 3.963 1.257 5.073.846 1.104 2.209 1.762 4.248 2.257.204.048.33.258.284.471a.381.381 0 0 1-.457.293c-2.21-.535-3.701-1.273-4.669-2.537-.962-1.256-1.375-3-1.422-5.544h.003Z"/><path d="M23.126 20.415a.228.228 0 0 1 .217-.242.227.227 0 0 1 .235.226c.093 2.396.795 4.464 1.45 6.404 1.09 3.216 2.06 6.085.072 9.57a.224.224 0 0 1-.312.082.236.236 0 0 1-.08-.32c1.882-3.298.942-6.068-.108-9.177-.666-1.97-1.378-4.073-1.477-6.54l.003-.003Zm-5.84-1.871c.423.045 1.187-.596 2.144-.94a17.335 17.335 0 0 1-.43-.447c-.253.09-.493.208-.718.346a2.734 2.734 0 0 0-.996 1.041Zm.994-6.01a.238.238 0 0 1 .172-.28.229.229 0 0 1 .271.179c.602 2.779 3.232 4.27 5.905 5.781 2.712 1.536 5.466 3.093 6.336 6.069a.237.237 0 0 1-.152.293.228.228 0 0 1-.284-.158c-.816-2.789-3.487-4.3-6.117-5.791-2.761-1.566-5.481-3.104-6.129-6.093h-.003Z"/><path d="M19.57 11.871a.239.239 0 0 1 .126-.306.225.225 0 0 1 .297.13c.89 2.266 3.257 3.604 5.657 4.965 1.73.98 3.476 1.97 4.746 3.337a.243.243 0 0 1-.008.333.223.223 0 0 1-.322-.008c-1.218-1.312-2.934-2.286-4.635-3.247-2.47-1.4-4.909-2.779-5.861-5.198v-.006Zm1.267-1.009a.237.237 0 0 1 .093-.316.223.223 0 0 1 .307.095c1.02 1.967 3.21 3.205 5.43 4.461.826.466 1.654.937 2.444 1.456.106.07.137.216.07.322a.222.222 0 0 1-.313.072c-.764-.503-1.592-.971-2.418-1.44-2.276-1.288-4.524-2.563-5.61-4.652l-.003.002Zm3.985 10.482a.234.234 0 0 1 .204-.258.23.23 0 0 1 .25.21c.206 2.02.813 3.814 1.386 5.507.787 2.327 1.512 4.47 1.097 6.817a.231.231 0 0 1-.266.189.236.236 0 0 1-.183-.272c.394-2.222-.313-4.311-1.08-6.577-.582-1.72-1.197-3.537-1.408-5.613v-.003Zm1.783 1.091a.235.235 0 0 1 .186-.271.229.229 0 0 1 .263.191c.276 1.6.77 3.056 1.241 4.448.475 1.403.927 2.74 1.12 4.094a.233.233 0 0 1-.193.266.227.227 0 0 1-.258-.2c-.189-1.314-.633-2.63-1.1-4.008-.477-1.41-.978-2.89-1.259-4.522v.002Zm-4.429 1.864a.236.236 0 0 1 .158-.29.227.227 0 0 1 .281.162c.25.915.545 1.783.831 2.63.973 2.874 1.853 5.472.601 8.49a.226.226 0 0 1-.299.126.238.238 0 0 1-.121-.31c1.182-2.853.33-5.368-.612-8.152-.289-.854-.588-1.735-.839-2.656Z"/><path d="M21.193 26.25a.237.237 0 0 1 .142-.298.226.226 0 0 1 .29.146c.115.351.175.527.237.703.903 2.667 1.724 5.094.838 7.849a.226.226 0 0 1-.286.15.236.236 0 0 1-.145-.296c.837-2.603.039-4.96-.836-7.546l-.237-.706-.003-.002Zm-1.141 1.323a.237.237 0 0 1 .142-.299.226.226 0 0 1 .29.147c.343 1.022.652 2.017.836 3.023.185 1.015.24 2.031.067 3.083a.229.229 0 0 1-.264.191.235.235 0 0 1-.185-.271c.165-.993.11-1.954-.065-2.917-.178-.972-.483-1.949-.82-2.957Zm-7.546-8.212c.21 0 .38.176.38.392 0 .298-.116.57-.307.766a1.027 1.027 0 0 1-1.484 0 1.093 1.093 0 0 1-.25-1.107.373.373 0 0 1 .477-.248l1.187.197h-.003Zm7.497-.21a.38.38 0 0 1 .475.258 1.155 1.155 0 0 1 .049.32c0 .298-.116.57-.307.766a1.028 1.028 0 0 1-1.484 0 1.093 1.093 0 0 1-.307-.766c0-.216.17-.392.38-.392l1.197-.186h-.003Zm-.234 12.305a.223.223 0 0 1 .322.01.24.24 0 0 1-.01.333c-2.054 2.002-4.516 2.013-4.581 2.01-.013 0-2.521.04-4.583-1.932a.238.238 0 0 1-.01-.333.221.221 0 0 1 .322-.01c1.93 1.846 4.263 1.806 4.268 1.806 0 0 2.323.014 4.269-1.884h.003Z"/><path d="M20.75 32.606a.223.223 0 0 1 .322.01.24.24 0 0 1-.01.333c-1.714 1.672-3.632 2.523-5.562 2.542-1.915.016-3.832-.79-5.562-2.446a.238.238 0 0 1-.01-.333.224.224 0 0 1 .323-.013c1.639 1.57 3.448 2.337 5.246 2.321 1.815-.016 3.626-.828 5.252-2.414Z"/></g><path fill="#fff" d="M55.596 17.06a3.933 3.933 0 0 0-1.584-1.608c-.672-.368-1.456-.552-2.352-.552-.992 0-1.872.224-2.64.672-.768.448-1.368 1.088-1.8 1.92-.432.832-.648 1.792-.648 2.88 0 1.12.216 2.096.648 2.928a4.751 4.751 0 0 0 1.848 1.92c.784.448 1.696.672 2.736.672 1.28 0 2.328-.336 3.144-1.008.816-.688 1.352-1.64 1.608-2.856h-5.76V19.46h9.072v2.928a7.87 7.87 0 0 1-1.44 3.24c-.736.992-1.688 1.792-2.856 2.4-1.152.592-2.448.888-3.888.888-1.616 0-3.08-.36-4.392-1.08a8.143 8.143 0 0 1-3.072-3.048c-.736-1.296-1.104-2.768-1.104-4.416 0-1.648.368-3.12 1.104-4.416a7.92 7.92 0 0 1 3.072-3.048c1.312-.736 2.768-1.104 4.368-1.104 1.888 0 3.528.464 4.92 1.392 1.392.912 2.352 2.2 2.88 3.864h-3.864Zm10.118-6.048v17.76h-3.36v-17.76h3.36Zm9.224 17.976c-1.28 0-2.432-.28-3.456-.84a6.301 6.301 0 0 1-2.424-2.424c-.576-1.04-.864-2.24-.864-3.6 0-1.36.296-2.56.888-3.6a6.253 6.253 0 0 1 2.472-2.4c1.04-.576 2.2-.864 3.48-.864 1.28 0 2.44.288 3.48.864a6.091 6.091 0 0 1 2.448 2.4c.608 1.04.912 2.24.912 3.6 0 1.36-.312 2.56-.936 3.6a6.377 6.377 0 0 1-2.496 2.424c-1.04.56-2.208.84-3.504.84Zm0-2.928c.608 0 1.176-.144 1.704-.432.544-.304.976-.752 1.296-1.344.32-.592.48-1.312.48-2.16 0-1.264-.336-2.232-1.008-2.904-.656-.688-1.464-1.032-2.424-1.032s-1.768.344-2.424 1.032c-.64.672-.96 1.64-.96 2.904s.312 2.24.936 2.928c.64.672 1.44 1.008 2.4 1.008Zm27.833-10.584-3.888 13.296h-3.624l-2.424-9.288-2.424 9.288h-3.648L82.85 15.476h3.408l2.352 10.128 2.544-10.128h3.552l2.496 10.104 2.352-10.104h3.216Zm18.33-.192c1.632 0 2.944.504 3.936 1.512 1.008.992 1.512 2.384 1.512 4.176v7.8h-3.36v-7.344c0-1.04-.264-1.832-.792-2.376-.528-.56-1.248-.84-2.16-.84-.912 0-1.64.28-2.184.84-.528.544-.792 1.336-.792 2.376v7.344h-3.36v-7.344c0-1.04-.264-1.832-.792-2.376-.528-.56-1.248-.84-2.16-.84-.928 0-1.664.28-2.208.84-.528.544-.792 1.336-.792 2.376v7.344h-3.36V15.476h3.36v1.608c.432-.56.984-1 1.656-1.32.688-.32 1.44-.48 2.256-.48 1.04 0 1.968.224 2.784.672a4.55 4.55 0 0 1 1.896 1.872c.432-.768 1.056-1.384 1.872-1.848a5.43 5.43 0 0 1 2.688-.696Zm20.996 6.552c0 .48-.032.912-.096 1.296h-9.72c.08.96.416 1.712 1.008 2.256.592.544 1.32.816 2.184.816 1.248 0 2.136-.536 2.664-1.608h3.624c-.384 1.28-1.12 2.336-2.208 3.168-1.088.816-2.424 1.224-4.008 1.224-1.28 0-2.432-.28-3.456-.84a6.182 6.182 0 0 1-2.376-2.424c-.56-1.04-.84-2.24-.84-3.6 0-1.376.28-2.584.84-3.624a5.861 5.861 0 0 1 2.352-2.4c1.008-.56 2.168-.84 3.48-.84 1.264 0 2.392.272 3.384.816a5.63 5.63 0 0 1 2.328 2.328c.56.992.84 2.136.84 3.432Zm-3.48-.96c-.016-.864-.328-1.552-.936-2.064-.608-.528-1.352-.792-2.232-.792-.832 0-1.536.256-2.112.768-.56.496-.904 1.192-1.032 2.088h6.312Z"/></svg>